<?xml version="1.0" encoding="UTF-8" standalone="no" ?>
<!DOCTYPE svg PUBLIC "-//W3C//DTD SVG 1.1//EN" "http://www.w3.org/Graphics/SVG/1.1/DTD/svg11.dtd">
<svg xmlns="http://www.w3.org/2000/svg" xmlns:xlink="http://www.w3.org/1999/xlink" version="1.1" width="32" height="32" viewBox="0 0 32 32" xml:space="preserve">
<desc>Created with Fabric.js 5.3.0</desc>
<defs>
</defs>
<g transform="matrix(1 0 0 1 0.2388059701 31.7877280265)" id="lBPRYResHxSWLszILmGzw"  >
<path style="stroke: rgb(0,0,0); stroke-width: 1; stroke-dasharray: none; stroke-linecap: butt; stroke-dashoffset: 0; stroke-linejoin: miter; stroke-miterlimit: 4; fill: rgb(255,255,255); fill-opacity: 0; fill-rule: nonzero; opacity: 1;" vector-effect="non-scaling-stroke"  transform=" translate(0, 0)" d="M 0 0" stroke-linecap="round" />
</g>
<g transform="matrix(1 0 0 1 16 22.447761194)" id="o68Ar0UU8aJS3nk5Vh46e"  >
<path style="stroke: rgb(0,0,0); stroke-width: 1; stroke-dasharray: none; stroke-linecap: butt; stroke-dashoffset: 0; stroke-linejoin: miter; stroke-miterlimit: 4; fill: rgb(255,255,255); fill-opacity: 0; fill-rule: nonzero; opacity: 1;" vector-effect="non-scaling-stroke"  transform=" translate(0, 0)" d="M -13.69154 6.84577 L -6.31509 7.90713 L 0.6898900000000001 8.22554 L 2.74736 8.0385 L 10.6136 7.323390000000001 L 13.69154 -4.88225 L 11.99336 -8.22553 L 8.17246 -6.7926899999999995 L 2.1757799999999996 3.02489 L 3.9270199999999997 5.6252200000000006" stroke-linecap="round" />
</g>
<g transform="matrix(1 0 0 1 18.3880597015 29.4527363184)" id="MkWTQm1eTmO2VH7wgugnG"  >
<path style="stroke: rgb(0,0,0); stroke-width: 1; stroke-dasharray: none; stroke-linecap: butt; stroke-dashoffset: 0; stroke-linejoin: miter; stroke-miterlimit: 4; fill: rgb(255,255,255); fill-opacity: 0; fill-rule: nonzero; opacity: 1;" vector-effect="non-scaling-stroke"  transform=" translate(0, 0)" d="M 1.53897 -1.3267 L -1.53897 1.3267" stroke-linecap="round" />
</g>
<g transform="matrix(1 0 0 1 12.6567164179 22.0497512438)" id="iXgW3dYDO7G_bJFtnaVx6"  >
<path style="stroke: rgb(0,0,0); stroke-width: 1; stroke-dasharray: none; stroke-linecap: butt; stroke-dashoffset: 0; stroke-linejoin: miter; stroke-miterlimit: 4; fill: rgb(255,255,255); fill-opacity: 0; fill-rule: nonzero; opacity: 1;" vector-effect="non-scaling-stroke"  transform=" translate(0, 0)" d="M -10.02985 6.97844 L -8.119399999999999 1.61857 L -4.616909999999999 -2.3084599999999997 L 1.1144300000000014 -6.0497499999999995 L 3.6923700000000013 -5.06799 L 1.1144300000000014 -1.5655000000000001 L 7.270320000000002 -6.97844 L 10.029860000000001 -6.0497499999999995 L 9.49918 -3.4759499999999997" stroke-linecap="round" />
</g>
<g transform="matrix(1 0 0 1 8.4378109453 24.5174129353)" id="kxNyqEdL38Ql9g9P9TR6o"  >
<path style="stroke: rgb(0,0,0); stroke-width: 1; stroke-dasharray: none; stroke-linecap: butt; stroke-dashoffset: 0; stroke-linejoin: miter; stroke-miterlimit: 4; fill: rgb(255,255,255); fill-opacity: 0; fill-rule: nonzero; opacity: 1;" vector-effect="non-scaling-stroke"  transform=" translate(0, 0)" d="M 5.59867 -4.40464 L -0.55722 -2.0696499999999998 L -5.59868 4.40465" stroke-linecap="round" />
</g>
<g transform="matrix(1 0 0 1 12.6301824212 27.4361525705)" id="a0QIINvBlIMukBYwwoF9W"  >
<path style="stroke: rgb(0,0,0); stroke-width: 1; stroke-dasharray: none; stroke-linecap: butt; stroke-dashoffset: 0; stroke-linejoin: miter; stroke-miterlimit: 4; fill: rgb(255,255,255); fill-opacity: 0; fill-rule: nonzero; opacity: 1;" vector-effect="non-scaling-stroke"  transform=" translate(0, 0)" d="M 5.49254 -2.54726 L 0.3980100000000002 -2.0165800000000003 L -5.49254 2.54727" stroke-linecap="round" />
</g>
</svg>